<?xml version="1.0" encoding="UTF-8"?>
<svg width="80px" height="80px" viewBox="0 0 80 80" version="1.1" xmlns="http://www.w3.org/2000/svg" xmlns:xlink="http://www.w3.org/1999/xlink">
    <title>Group 12</title>
    <g id="Page-1" stroke="none" stroke-width="1" fill="none" fill-rule="evenodd">
        <g id="Group-12">
            <rect id="Rectangle" fill="#EFEFEF" x="0" y="0" width="80" height="80" rx="17"></rect>
            <path d="M18.794,60.325 C19.6893333,60.325 20.4515,60.1663333 21.0805,59.849 C21.7095,59.5316667 22.1855,59.1066667 22.5085,58.574 C22.8315,58.0413333 22.993,57.4576667 22.993,56.823 C22.993,56.041 22.8173333,55.4063333 22.466,54.919 C22.1146667,54.4316667 21.6953333,54.0605 21.208,53.8055 C20.7206667,53.5505 20.0916667,53.2926667 19.321,53.032 C18.7883333,52.8393333 18.3803333,52.6806667 18.097,52.556 C17.8136667,52.4313333 17.5785,52.2698333 17.3915,52.0715 C17.2045,51.8731667 17.111,51.6323333 17.111,51.349 C17.111,50.9976667 17.2158333,50.7313333 17.4255,50.55 C17.6351667,50.3686667 17.91,50.278 18.25,50.278 C18.6466667,50.278 18.9611667,50.3941667 19.1935,50.6265 C19.4258333,50.8588333 19.5703333,51.1733333 19.627,51.57 L19.627,51.57 L22.772,51.57 C22.67,50.4593333 22.2251667,49.5866667 21.4375,48.952 C20.6498333,48.3173333 19.5873333,48 18.25,48 C17.4226667,48 16.6888333,48.1388333 16.0485,48.4165 C15.4081667,48.6941667 14.9066667,49.0936667 14.544,49.615 C14.1813333,50.1363333 14,50.754 14,51.468 C14,52.2386667 14.1728333,52.8648333 14.5185,53.3465 C14.8641667,53.8281667 15.2778333,54.1908333 15.7595,54.4345 C16.2411667,54.6781667 16.8616667,54.9303333 17.621,55.191 C18.1423333,55.3723333 18.5503333,55.5281667 18.845,55.6585 C19.1396667,55.7888333 19.3861667,55.956 19.5845,56.16 C19.7828333,56.364 19.882,56.619 19.882,56.925 C19.882,57.265 19.7743333,57.537 19.559,57.741 C19.3436667,57.945 19.049,58.047 18.675,58.047 C18.2443333,58.047 17.8901667,57.9166667 17.6125,57.656 C17.3348333,57.3953333 17.1733333,57.0383333 17.128,56.585 L17.128,56.585 L14.034,56.585 C14.1133333,57.7636667 14.5893333,58.6816667 15.462,59.339 C16.3346667,59.9963333 17.4453333,60.325 18.794,60.325 Z M27.515,64.728 L27.515,58.489 C27.753,59.0556667 28.1326667,59.5033333 28.654,59.832 C29.1753333,60.1606667 29.7986667,60.325 30.524,60.325 C31.306,60.325 32.0058333,60.1295 32.6235,59.7385 C33.2411667,59.3475 33.7285,58.7836667 34.0855,58.047 C34.4425,57.3103333 34.621,56.449 34.621,55.463 C34.621,54.4656667 34.4425,53.6015 34.0855,52.8705 C33.7285,52.1395 33.2411667,51.5785 32.6235,51.1875 C32.0058333,50.7965 31.306,50.601 30.524,50.601 C29.7986667,50.601 29.1753333,50.7653333 28.654,51.094 C28.1326667,51.4226667 27.753,51.8703333 27.515,52.437 L27.515,52.437 L27.515,50.72 L24.608,50.72 L24.608,64.728 L27.515,64.728 Z M29.589,57.775 C28.977,57.775 28.4755,57.5653333 28.0845,57.146 C27.6935,56.7266667 27.498,56.1656667 27.498,55.463 C27.498,54.749 27.6935,54.1851667 28.0845,53.7715 C28.4755,53.3578333 28.977,53.151 29.589,53.151 C30.2123333,53.151 30.7138333,53.355 31.0935,53.763 C31.4731667,54.171 31.663,54.7376667 31.663,55.463 C31.663,56.1883333 31.4731667,56.755 31.0935,57.163 C30.7138333,57.571 30.2123333,57.775 29.589,57.775 Z M39.738,60.325 C40.4633333,60.325 41.0866667,60.1606667 41.608,59.832 C42.1293333,59.5033333 42.5146667,59.0556667 42.764,58.489 L42.764,58.489 L42.764,60.206 L45.654,60.206 L45.654,50.72 L42.764,50.72 L42.764,52.437 C42.5146667,51.8703333 42.1293333,51.4226667 41.608,51.094 C41.0866667,50.7653333 40.4633333,50.601 39.738,50.601 C38.956,50.601 38.2561667,50.7965 37.6385,51.1875 C37.0208333,51.5785 36.5335,52.1395 36.1765,52.8705 C35.8195,53.6015 35.641,54.4656667 35.641,55.463 C35.641,56.449 35.8195,57.3103333 36.1765,58.047 C36.5335,58.7836667 37.0208333,59.3475 37.6385,59.7385 C38.2561667,60.1295 38.956,60.325 39.738,60.325 Z M40.673,57.775 C40.0496667,57.775 39.5481667,57.571 39.1685,57.163 C38.7888333,56.755 38.599,56.1883333 38.599,55.463 C38.599,54.7376667 38.7888333,54.171 39.1685,53.763 C39.5481667,53.355 40.0496667,53.151 40.673,53.151 C41.285,53.151 41.7865,53.3578333 42.1775,53.7715 C42.5685,54.1851667 42.764,54.749 42.764,55.463 C42.764,56.1656667 42.5685,56.7266667 42.1775,57.146 C41.7865,57.5653333 41.285,57.775 40.673,57.775 Z M51.944,60.325 C53.168,60.325 54.1936667,59.9878333 55.021,59.3135 C55.8483333,58.6391667 56.3696667,57.7126667 56.585,56.534 L56.585,56.534 L53.508,56.534 C53.4173333,56.942 53.2303333,57.2593333 52.947,57.486 C52.6636667,57.7126667 52.3066667,57.826 51.876,57.826 C51.366,57.826 50.9466667,57.6248333 50.618,57.2225 C50.2893333,56.8201667 50.125,56.2336667 50.125,55.463 C50.125,54.6923333 50.2893333,54.1058333 50.618,53.7035 C50.9466667,53.3011667 51.366,53.1 51.876,53.1 C52.3066667,53.1 52.6636667,53.2133333 52.947,53.44 C53.2303333,53.6666667 53.4173333,53.984 53.508,54.392 L53.508,54.392 L56.585,54.392 C56.3696667,53.2133333 55.8483333,52.2868333 55.021,51.6125 C54.1936667,50.9381667 53.168,50.601 51.944,50.601 C51.0146667,50.601 50.1873333,50.7965 49.462,51.1875 C48.7366667,51.5785 48.1728333,52.1395 47.7705,52.8705 C47.3681667,53.6015 47.167,54.4656667 47.167,55.463 C47.167,56.449 47.371,57.3103333 47.779,58.047 C48.187,58.7836667 48.7508333,59.3475 49.4705,59.7385 C50.1901667,60.1295 51.0146667,60.325 51.944,60.325 Z M62.382,60.325 C63.1753333,60.325 63.895,60.1748333 64.541,59.8745 C65.187,59.5741667 65.7196667,59.1605 66.139,58.6335 C66.5583333,58.1065 66.8303333,57.5086667 66.955,56.84 L66.955,56.84 L63.878,56.84 C63.7873333,57.18 63.6003333,57.4576667 63.317,57.673 C63.0336667,57.8883333 62.6766667,57.996 62.246,57.996 C61.736,57.996 61.3166667,57.8401667 60.988,57.5285 C60.6593333,57.2168333 60.478,56.704 60.444,55.99 L60.444,55.99 L67.023,55.99 C67.0796667,55.7066667 67.108,55.446 67.108,55.208 C67.108,54.3013333 66.9125,53.4995 66.5215,52.8025 C66.1305,52.1055 65.578,51.5643333 64.864,51.179 C64.15,50.7936667 63.3226667,50.601 62.382,50.601 C61.4526667,50.601 60.6253333,50.7965 59.9,51.1875 C59.1746667,51.5785 58.6108333,52.1395 58.2085,52.8705 C57.8061667,53.6015 57.605,54.4656667 57.605,55.463 C57.605,56.449 57.809,57.3103333 58.217,58.047 C58.625,58.7836667 59.1888333,59.3475 59.9085,59.7385 C60.6281667,60.1295 61.4526667,60.325 62.382,60.325 Z M64.167,54.766 L60.461,54.766 C60.5063333,54.154 60.7046667,53.6893333 61.056,53.372 C61.4073333,53.0546667 61.8493333,52.896 62.382,52.896 C62.892,52.896 63.3198333,53.0518333 63.6655,53.3635 C64.0111667,53.6751667 64.1783333,54.1426667 64.167,54.766 L64.167,54.766 Z" id="Space" fill="#212121" fill-rule="nonzero"></path>
            <g id="Group-13" transform="translate(26.000000, 17.000000)" stroke-linecap="round" stroke-linejoin="round">
                <path d="M3.81578947,10.9703947 L3.81578947,20.0328947 C3.81578947,20.0328947 6.20065789,23.8486842 13.8322368,23.8486842 C21.4638158,23.8486842 23.8486842,20.0328947 23.8486842,20.0328947 L23.8486842,10.9703947" id="Path-Copy" stroke="#669CFF" stroke-width="2.86184211"></path>
                <polygon id="Path-Copy-2" stroke="#186AFF" stroke-width="2.86184211" points="1.89789704e-14 8.10855263 13.8322368 0 27.6646645 8.10855263 13.8322368 16.2171053"></polygon>
                <path d="M14.7861842,8.10855263 C14.7861842,8.63532237 14.3590066,9.0625 13.8322368,9.0625 C13.3054671,9.0625 12.8782895,8.63532237 12.8782895,8.10855263 C12.8782895,7.58170658 13.3054671,7.15460526 13.8322368,7.15460526 C14.3590066,7.15460526 14.7861842,7.58170658 14.7861842,8.10855263 Z" id="Path-Copy-3" stroke="#186AFF" stroke-width="1.90789474"></path>
            </g>
        </g>
    </g>
</svg>